<svg xmlns="http://www.w3.org/2000/svg" xmlns:xlink="http://www.w3.org/1999/xlink" width="23" height="26" viewBox="0 0 23 26"><defs><path id="ttmqa" d="M1709.64 96.63h19.46l-2.19 8.43h-17.27zm1.85 14.17a1.6 1.6 0 0 1 2.32 0 1.68 1.68 0 0 1 0 2.38c-.63.64-1.7.64-2.32 0a1.7 1.7 0 0 1 0-2.38zm9 0a1.6 1.6 0 0 1 2.32 0 1.68 1.68 0 0 1 0 2.38c-.63.64-1.7.64-2.32 0a1.7 1.7 0 0 1 0-2.38zm-11.68-.46h.96a3.42 3.42 0 0 0 .5 3.9 2.97 2.97 0 0 0 4.36 0c.58-.61.9-1.44.9-2.32 0-.57-.14-1.1-.4-1.58h3.83a3.42 3.42 0 0 0 .5 3.9 2.97 2.97 0 0 0 4.37 0c.57-.61.89-1.44.89-2.32 0-.57-.14-1.1-.4-1.58h1.03c.46 0 .82-.38.82-.87 0-.48-.36-.86-.82-.86h-15.72v-1.69h17.87c.36 0 .67-.25.77-.63l2.7-10.48a.89.89 0 0 0-.14-.74.81.81 0 0 0-.63-.34h-20.57v-3.14c0-.49-.36-.87-.82-.87-.45 0-.81.38-.81.87v17.86c0 .5.36.89.81.89z"/></defs><g><g transform="translate(-1708 -90)"><use fill="#ffad25" xlink:href="#ttmqa"/></g></g></svg>