<svg xmlns="http://www.w3.org/2000/svg" xmlns:xlink="http://www.w3.org/1999/xlink" width="13" height="13" viewBox="0 0 13 13"><defs><path id="daska" d="M1532 526.5a1.5 1.5 0 1 1 3 0 1.5 1.5 0 0 1-3 0z"/><path id="daskb" d="M1532 531.5a1.5 1.5 0 1 1 3 0 1.5 1.5 0 0 1-3 0z"/><path id="daskc" d="M1532 536.5a1.5 1.5 0 1 1 3 0 1.5 1.5 0 0 1-3 0z"/><path id="daskd" d="M1537 526.5c0-.83.67-1.5 1.5-1.5h5a1.5 1.5 0 1 1 0 3h-5a1.5 1.5 0 0 1-1.5-1.5z"/><path id="daske" d="M1537 531.5c0-.83.67-1.5 1.5-1.5h5a1.5 1.5 0 1 1 0 3h-5a1.5 1.5 0 0 1-1.5-1.5z"/><path id="daskf" d="M1537 536.5c0-.83.67-1.5 1.5-1.5h5a1.5 1.5 0 1 1 0 3h-5a1.5 1.5 0 0 1-1.5-1.5z"/></defs><g><g transform="translate(-1532 -525)"><g><use fill="#e3e7ee" xlink:href="#daska"/></g><g><use fill="#e3e7ee" xlink:href="#daskb"/></g><g><use fill="#e3e7ee" xlink:href="#daskc"/></g><g><use fill="#e3e7ee" xlink:href="#daskd"/></g><g><use fill="#e3e7ee" xlink:href="#daske"/></g><g><use fill="#e3e7ee" xlink:href="#daskf"/></g></g></g></svg>