<svg xmlns="http://www.w3.org/2000/svg" xmlns:xlink="http://www.w3.org/1999/xlink" width="17" height="18" viewBox="0 0 17 18"><defs><path id="pvdka" d="M455 95.31c0-.84.67-1.53 1.5-1.53s1.5.69 1.5 1.53c0 .84-.67 1.53-1.5 1.53s-1.5-.69-1.5-1.53z"/><path id="pvdkb" d="M455 102.45c0-.85.67-1.53 1.5-1.53s1.5.68 1.5 1.53c0 .84-.67 1.52-1.5 1.52s-1.5-.68-1.5-1.52z"/><path id="pvdkc" d="M462 95.31c0-.84.67-1.53 1.5-1.53s1.5.69 1.5 1.53c0 .84-.67 1.53-1.5 1.53s-1.5-.69-1.5-1.53z"/><path id="pvdkd" d="M462 102.45c0-.85.67-1.53 1.5-1.53s1.5.68 1.5 1.53c0 .84-.67 1.52-1.5 1.52s-1.5-.68-1.5-1.52z"/><path id="pvdke" d="M469 95.31c0-.84.67-1.53 1.5-1.53s1.5.69 1.5 1.53c0 .84-.67 1.53-1.5 1.53s-1.5-.69-1.5-1.53z"/><path id="pvdkf" d="M469 102.45c0-.85.67-1.53 1.5-1.53s1.5.68 1.5 1.53c0 .84-.67 1.52-1.5 1.52s-1.5-.68-1.5-1.52z"/><path id="pvdkg" d="M455 109.58c0-.84.67-1.53 1.5-1.53s1.5.69 1.5 1.53c0 .85-.67 1.53-1.5 1.53s-1.5-.68-1.5-1.53z"/><path id="pvdkh" d="M462 109.58c0-.84.67-1.53 1.5-1.53s1.5.69 1.5 1.53c0 .85-.67 1.53-1.5 1.53s-1.5-.68-1.5-1.53z"/><path id="pvdki" d="M469 109.58c0-.84.67-1.53 1.5-1.53s1.5.69 1.5 1.53c0 .85-.67 1.53-1.5 1.53s-1.5-.68-1.5-1.53z"/></defs><g><g transform="translate(-455 -93)"><g><use fill="#3c3c3c" xlink:href="#pvdka"/></g><g><use fill="#3c3c3c" xlink:href="#pvdkb"/></g><g><use fill="#3c3c3c" xlink:href="#pvdkc"/></g><g><use fill="#3c3c3c" xlink:href="#pvdkd"/></g><g><use fill="#3c3c3c" xlink:href="#pvdke"/></g><g><use fill="#3c3c3c" xlink:href="#pvdkf"/></g><g><use fill="#3c3c3c" xlink:href="#pvdkg"/></g><g><use fill="#3c3c3c" xlink:href="#pvdkh"/></g><g><use fill="#3c3c3c" xlink:href="#pvdki"/></g></g></g></svg>