<svg xmlns="http://www.w3.org/2000/svg" xmlns:xlink="http://www.w3.org/1999/xlink" width="17" height="18" viewBox="0 0 17 18"><defs><path id="cqeca" d="M455 95.31c0-.84.67-1.53 1.5-1.53s1.5.69 1.5 1.53c0 .84-.67 1.53-1.5 1.53s-1.5-.69-1.5-1.53z"/><path id="cqecb" d="M455 102.45c0-.85.67-1.53 1.5-1.53s1.5.68 1.5 1.53c0 .84-.67 1.52-1.5 1.52s-1.5-.68-1.5-1.52z"/><path id="cqecc" d="M462 95.31c0-.84.67-1.53 1.5-1.53s1.5.69 1.5 1.53c0 .84-.67 1.53-1.5 1.53s-1.5-.69-1.5-1.53z"/><path id="cqecd" d="M462 102.45c0-.85.67-1.53 1.5-1.53s1.5.68 1.5 1.53c0 .84-.67 1.52-1.5 1.52s-1.5-.68-1.5-1.52z"/><path id="cqece" d="M469 95.31c0-.84.67-1.53 1.5-1.53s1.5.69 1.5 1.53c0 .84-.67 1.53-1.5 1.53s-1.5-.69-1.5-1.53z"/><path id="cqecf" d="M469 102.45c0-.85.67-1.53 1.5-1.53s1.5.68 1.5 1.53c0 .84-.67 1.52-1.5 1.52s-1.5-.68-1.5-1.52z"/><path id="cqecg" d="M455 109.58c0-.84.67-1.53 1.5-1.53s1.5.69 1.5 1.53c0 .85-.67 1.53-1.5 1.53s-1.5-.68-1.5-1.53z"/><path id="cqech" d="M462 109.58c0-.84.67-1.53 1.5-1.53s1.5.69 1.5 1.53c0 .85-.67 1.53-1.5 1.53s-1.5-.68-1.5-1.53z"/><path id="cqeci" d="M469 109.58c0-.84.67-1.53 1.5-1.53s1.5.69 1.5 1.53c0 .85-.67 1.53-1.5 1.53s-1.5-.68-1.5-1.53z"/></defs><g><g transform="translate(-455 -93)"><g><use fill="#ffad25" xlink:href="#cqeca"/></g><g><use fill="#ffad25" xlink:href="#cqecb"/></g><g><use fill="#ffad25" xlink:href="#cqecc"/></g><g><use fill="#ffad25" xlink:href="#cqecd"/></g><g><use fill="#ffad25" xlink:href="#cqece"/></g><g><use fill="#ffad25" xlink:href="#cqecf"/></g><g><use fill="#ffad25" xlink:href="#cqecg"/></g><g><use fill="#ffad25" xlink:href="#cqech"/></g><g><use fill="#ffad25" xlink:href="#cqeci"/></g></g></g></svg>