<svg xmlns="http://www.w3.org/2000/svg" xmlns:xlink="http://www.w3.org/1999/xlink" width="25" height="25" viewBox="0 0 25 25"><defs><path id="g60la" d="M1588.94 93.4a7.4 7.4 0 0 1 7.32 7.46 7.38 7.38 0 0 1-7.32 7.46 7.4 7.4 0 0 1-7.31-7.46c0-4.1 3.29-7.46 7.31-7.46zm.01 16.59c2.18 0 4.17-.8 5.72-2.13l6.94 7.08c.16.17.36.25.58.25.21 0 .41-.08.57-.25a.84.84 0 0 0 0-1.17l-6.94-7.08a9.21 9.21 0 0 0 2.08-5.82c0-5.04-4-9.13-8.95-9.13a9.07 9.07 0 0 0-8.95 9.13 9.05 9.05 0 0 0 8.95 9.12z"/></defs><g><g transform="translate(-1579 -91)"><g><g><use fill="#373d49" xlink:href="#g60la"/><use fill="#fff" fill-opacity="0" stroke="#373d49" stroke-miterlimit="50" stroke-width=".25" xlink:href="#g60la"/></g></g></g></g></svg>