<svg xmlns="http://www.w3.org/2000/svg" xmlns:xlink="http://www.w3.org/1999/xlink" width="13" height="13" viewBox="0 0 13 13"><defs><path id="d8eka" d="M1504 526.5a1.5 1.5 0 1 1 3 0 1.5 1.5 0 0 1-3 0z"/><path id="d8ekb" d="M1504 531.5a1.5 1.5 0 1 1 3 0 1.5 1.5 0 0 1-3 0z"/><path id="d8ekc" d="M1504 536.5a1.5 1.5 0 1 1 3 0 1.5 1.5 0 0 1-3 0z"/><path id="d8ekd" d="M1509 526.5a1.5 1.5 0 1 1 3 0 1.5 1.5 0 0 1-3 0z"/><path id="d8eke" d="M1514 526.5a1.5 1.5 0 1 1 3 0 1.5 1.5 0 0 1-3 0z"/><path id="d8ekf" d="M1509 531.5a1.5 1.5 0 1 1 3 0 1.5 1.5 0 0 1-3 0z"/><path id="d8ekg" d="M1509 536.5a1.5 1.5 0 1 1 3 0 1.5 1.5 0 0 1-3 0z"/><path id="d8ekh" d="M1514 531.5a1.5 1.5 0 1 1 3 0 1.5 1.5 0 0 1-3 0z"/><path id="d8eki" d="M1514 536.5a1.5 1.5 0 1 1 3 0 1.5 1.5 0 0 1-3 0z"/></defs><g><g transform="translate(-1504 -525)"><g><g><use fill="#e3e7ee" xlink:href="#d8eka"/></g><g><use fill="#e3e7ee" xlink:href="#d8ekb"/></g><g><use fill="#e3e7ee" xlink:href="#d8ekc"/></g><g><use fill="#e3e7ee" xlink:href="#d8ekd"/></g><g><use fill="#e3e7ee" xlink:href="#d8eke"/></g><g><use fill="#e3e7ee" xlink:href="#d8ekf"/></g><g><use fill="#e3e7ee" xlink:href="#d8ekg"/></g><g><use fill="#e3e7ee" xlink:href="#d8ekh"/></g><g><use fill="#e3e7ee" xlink:href="#d8eki"/></g></g></g></g></svg>